<svg width="129" height="128" viewBox="0 0 129 128" fill="none" xmlns="http://www.w3.org/2000/svg">
<path fill-rule="evenodd" clip-rule="evenodd" d="M88.8811 21.7179C89.4583 20.3753 89.7766 18.9044 89.7766 17.3624C89.7766 11.0393 84.4245 5.91345 77.8225 5.91345C71.8485 5.91345 66.8981 10.1103 66.0102 15.5935L65.9352 15.5734L65.9381 16.1182C65.892 16.5268 65.8683 16.942 65.8683 17.3624C65.8683 17.8238 65.8968 18.2788 65.9522 18.7259L66.0441 35.6784L78.7108 39.7335L88.9807 21.7446L88.8811 21.7179Z" fill="#27AE60"/>
<path fill-rule="evenodd" clip-rule="evenodd" d="M84.8879 22.5355C84.8317 19.9388 83.6518 17.3879 81.4443 15.6643C77.5427 12.6179 71.9083 13.3097 68.8596 17.2095C68.7172 17.3916 68.583 17.5775 68.4568 17.7667C68.4137 15.774 69.0323 13.7543 70.3561 12.061C73.4049 8.16133 79.0392 7.46953 82.9409 10.5159C86.6603 13.4199 87.4623 18.6728 84.8879 22.5355Z" fill="#219653"/>
<path fill-rule="evenodd" clip-rule="evenodd" d="M38.8587 22.9478C37.9635 21.7924 36.8306 20.8011 35.481 20.0535C29.9473 16.988 22.8666 19.181 19.6659 24.9518C16.7697 30.1734 18.0426 36.5352 22.4108 39.9696L22.3568 40.0254L22.8351 40.2869C23.1703 40.5254 23.5222 40.7473 23.8901 40.9511C24.2939 41.1748 24.7059 41.3705 25.1241 41.5388L40.0048 49.6773L49.6947 40.5716L38.9303 22.8737L38.8587 22.9478Z" fill="#27AE60"/>
<path fill-rule="evenodd" clip-rule="evenodd" d="M25.4975 38.884C25.3932 38.6823 25.2957 38.4751 25.2055 38.2627C23.2708 33.7078 25.3975 28.4478 29.9556 26.5143C32.5348 25.4202 35.3398 25.6255 37.6397 26.8353C35.5076 22.7122 30.521 20.8668 26.1755 22.7102C21.6174 24.6437 19.4906 29.9037 21.4253 34.4586C22.2653 36.4362 23.7327 37.9557 25.4975 38.884Z" fill="#219653"/>
<path fill-rule="evenodd" clip-rule="evenodd" d="M20.8337 40.8656C19.4902 40.2888 18.0184 39.9707 16.4754 39.9707C10.1484 39.9707 5.01941 45.3194 5.01941 51.9174C5.01941 57.8876 9.21889 62.835 14.7054 63.7224L14.6853 63.7973L15.2305 63.7943C15.6394 63.8404 16.0548 63.8641 16.4754 63.8641C16.9371 63.8641 17.3924 63.8356 17.8398 63.7802L34.8028 63.6885L38.8605 51.0296L20.8604 40.7661L20.8337 40.8656Z" fill="#27AE60"/>
<path fill-rule="evenodd" clip-rule="evenodd" d="M16.878 61.2773C16.689 61.1515 16.5034 61.0176 16.3215 60.8756C12.4199 57.8293 11.7285 52.1984 14.7772 48.2987C16.5024 46.0921 19.0554 44.9125 21.6539 44.8562C17.7891 42.283 12.5322 43.0852 9.62562 46.8031C6.57688 50.7028 7.26828 56.3337 11.1699 59.38C12.8638 60.7026 14.8843 61.3206 16.878 61.2773Z" fill="#219653"/>
<path fill-rule="evenodd" clip-rule="evenodd" d="M15.0391 66.1521C13.587 66.3239 12.1533 66.7839 10.817 67.5549C5.33764 70.7164 3.57179 77.9115 6.87282 83.6255C9.85979 88.7958 15.9719 90.982 21.1673 89.0089L21.1874 89.0838L21.658 88.8089C22.0352 88.6444 22.4068 88.4574 22.7711 88.2472C23.1709 88.0165 23.551 87.7643 23.9107 87.4928L38.5552 78.9371L35.7359 65.9466L15.0124 66.0527L15.0391 66.1521Z" fill="#27AE60"/>
<path fill-rule="evenodd" clip-rule="evenodd" d="M21.826 85.8055C21.5993 85.791 21.3714 85.7678 21.1427 85.7357C16.2395 85.047 12.8234 80.5161 13.5126 75.6156C13.9025 72.8428 15.5233 70.5457 17.7455 69.1985C13.111 68.9014 8.95989 72.2226 8.30286 76.8946C7.61369 81.7951 11.0298 86.326 15.933 87.0146C18.0618 87.3136 20.1209 86.8392 21.826 85.8055Z" fill="#219653"/>
<path fill-rule="evenodd" clip-rule="evenodd" d="M22.3457 90.8059C21.1742 91.6803 20.1626 92.795 19.3911 94.1304C16.2276 99.6064 18.2981 106.72 24.0157 110.019C29.1893 113.004 35.5762 111.843 39.0885 107.538L39.1434 107.593L39.4134 107.12C39.6578 106.789 39.8859 106.441 40.0963 106.077C40.3271 105.678 40.5301 105.269 40.7058 104.854L49.1078 90.1272L40.1669 80.2859L22.2729 90.7331L22.3457 90.8059Z" fill="#27AE60"/>
<path fill-rule="evenodd" clip-rule="evenodd" d="M26.2133 92.0927C24.9628 94.3697 24.7083 97.1686 25.7578 99.7645C27.6126 104.352 32.8382 106.569 37.4294 104.715C37.6437 104.629 37.8528 104.535 38.0566 104.434C37.0971 106.181 35.551 107.621 33.5575 108.426C28.9663 110.28 23.7408 108.063 21.886 103.475C20.1177 99.1015 22.0511 94.1515 26.2133 92.0927Z" fill="#219653"/>
<path fill-rule="evenodd" clip-rule="evenodd" d="M41.1716 107.272C40.5945 108.615 40.2762 110.086 40.2762 111.628C40.2762 117.951 45.6282 123.077 52.2303 123.077C58.2042 123.077 63.1547 118.88 64.0426 113.397L64.1176 113.417L64.1146 112.872C64.1608 112.464 64.1844 112.048 64.1844 111.628C64.1844 111.167 64.1559 110.712 64.1005 110.264L64.0087 93.312L51.342 89.2568L41.0721 107.246L41.1716 107.272Z" fill="#27AE60"/>
<path fill-rule="evenodd" clip-rule="evenodd" d="M45.1649 106.455C45.2211 109.052 46.4009 111.602 48.6084 113.326C52.5101 116.372 58.1444 115.681 61.1932 111.781C61.3356 111.599 61.4698 111.413 61.5959 111.224C61.6391 113.216 61.0204 115.236 59.6966 116.929C56.6479 120.829 51.0135 121.521 47.1119 118.474C43.3925 115.57 42.5905 110.318 45.1649 106.455Z" fill="#219653"/>
<path fill-rule="evenodd" clip-rule="evenodd" d="M65.8827 113.102C66.0799 114.55 66.5651 115.974 67.3598 117.296C70.6184 122.716 77.8477 124.355 83.5068 120.957C88.6274 117.882 90.7079 111.736 88.6432 106.579L88.7178 106.558L88.4346 106.092C88.2635 105.718 88.0698 105.35 87.8532 104.99C87.6154 104.595 87.3565 104.219 87.0785 103.864L78.2632 89.3807L65.3159 92.4245L65.7836 113.13L65.8827 113.102Z" fill="#27AE60"/>
<path fill-rule="evenodd" clip-rule="evenodd" d="M68.8839 110.345C70.2704 112.542 72.5965 114.121 75.3772 114.463C80.2917 115.066 84.7649 111.573 85.3683 106.661C85.3965 106.432 85.4157 106.203 85.4263 105.976C86.4903 107.662 87.0008 109.712 86.7388 111.844C86.1353 116.756 81.6621 120.249 76.7477 119.646C72.0626 119.071 68.6678 114.981 68.8839 110.345Z" fill="#219653"/>
<path fill-rule="evenodd" clip-rule="evenodd" d="M91.1357 106.443C92.0309 107.598 93.1638 108.589 94.5134 109.337C100.047 112.402 107.128 110.209 110.329 104.439C113.225 99.2171 111.952 92.8553 107.584 89.4209L107.638 89.3651L107.159 89.1036C106.824 88.8651 106.472 88.6432 106.104 88.4394C105.701 88.2157 105.289 88.02 104.87 87.8517L89.9896 79.7132L80.2998 88.8189L91.0641 106.517L91.1357 106.443Z" fill="#27AE60"/>
<path fill-rule="evenodd" clip-rule="evenodd" d="M104.497 90.5065C104.601 90.7082 104.699 90.9154 104.789 91.1278C106.724 95.6827 104.597 100.943 100.039 102.876C97.4596 103.97 94.6547 103.765 92.3547 102.555C94.4868 106.678 99.4734 108.524 103.819 106.68C108.377 104.747 110.504 99.4868 108.569 94.9319C107.729 92.9543 106.262 91.4348 104.497 90.5065Z" fill="#219653"/>
<path fill-rule="evenodd" clip-rule="evenodd" d="M108.596 88.2193C109.958 88.7488 111.44 89.0154 112.982 88.9616C119.306 88.7409 124.245 83.2166 124.014 76.6226C123.806 70.6561 119.436 65.8582 113.922 65.1627L113.939 65.0871L113.395 65.1091C112.984 65.0773 112.568 65.0681 112.148 65.0828C111.687 65.0989 111.233 65.1432 110.787 65.2142L93.8379 65.8975L90.2248 78.6902L108.572 88.3196L108.596 88.2193Z" fill="#27AE60"/>
<path fill-rule="evenodd" clip-rule="evenodd" d="M111.836 67.682C112.029 67.8011 112.22 67.9285 112.406 68.064C116.412 70.9724 117.299 76.5758 114.389 80.5794C112.742 82.8449 110.231 84.1128 107.637 84.2597C111.589 86.6965 116.814 85.7115 119.589 81.8945C122.5 77.8908 121.613 72.2875 117.607 69.3791C115.868 68.1164 113.827 67.5693 111.836 67.682Z" fill="#219653"/>
<path fill-rule="evenodd" clip-rule="evenodd" d="M114.093 64.1041C115.541 63.907 116.967 63.4221 118.289 62.6279C123.713 59.3713 125.353 52.1466 121.952 46.491C118.876 41.3735 112.726 39.2943 107.566 41.3577L107.545 41.2831L107.079 41.5663C106.705 41.7372 106.336 41.9308 105.976 42.1473C105.58 42.3849 105.205 42.6437 104.85 42.9214L90.3567 51.7313L93.4024 64.6706L114.121 64.2031L114.093 64.1041Z" fill="#27AE60"/>
<path fill-rule="evenodd" clip-rule="evenodd" d="M106.963 44.5721C107.19 44.5827 107.419 44.6019 107.648 44.63C112.562 45.233 116.057 49.7037 115.454 54.6154C115.112 57.3947 113.532 59.7196 111.333 61.1054C115.972 61.3216 120.065 57.9285 120.64 53.2458C121.244 48.334 117.749 43.8634 112.834 43.2604C110.701 42.9986 108.65 43.5088 106.963 44.5721Z" fill="#219653"/>
<path fill-rule="evenodd" clip-rule="evenodd" d="M106.833 40.0531C108.019 39.1993 109.05 38.1024 109.845 36.7806C113.104 31.3607 111.158 24.2122 105.499 20.814C100.378 17.7391 93.9717 18.7884 90.3848 23.0313L90.3309 22.9755L90.0526 23.444C89.8025 23.7706 89.5683 24.1142 89.3516 24.4746C89.1138 24.8701 88.9038 25.2748 88.7208 25.6865L80.063 40.2649L88.8306 50.2606L106.904 40.1272L106.833 40.0531Z" fill="#27AE60"/>
<path fill-rule="evenodd" clip-rule="evenodd" d="M102.988 38.699C104.278 36.4442 104.582 33.6502 103.578 31.0363C101.803 26.4167 96.6172 24.1094 91.9943 25.8828C91.7785 25.9656 91.5678 26.0558 91.3622 26.153C92.3522 24.4227 93.9232 23.01 95.9304 22.24C100.553 20.4666 105.739 22.7739 107.514 27.3936C109.205 31.7976 107.186 36.7132 102.988 38.699Z" fill="#219653"/>
<path fill-rule="evenodd" clip-rule="evenodd" d="M64.1324 15.9277C63.9344 14.4733 63.4474 13.0423 62.6496 11.7147C59.3785 6.27055 52.1215 4.62431 46.4407 8.03768C41.3004 11.1263 39.2119 17.2992 41.2845 22.4792L41.2096 22.5007L41.494 22.9683C41.6657 23.344 41.8601 23.7136 42.0776 24.0756C42.3163 24.4728 42.5762 24.8498 42.8552 25.2062L51.7044 39.7546L64.7014 36.6972L64.2318 15.8992L64.1324 15.9277Z" fill="#27AE60"/>
<path fill-rule="evenodd" clip-rule="evenodd" d="M61.12 18.697C59.7281 16.4903 57.3929 14.9039 54.6014 14.5611C49.6679 13.9553 45.1775 17.4637 44.5717 22.3972C44.5434 22.6274 44.5241 22.8566 44.5135 23.0846C43.4455 21.3913 42.933 19.3328 43.196 17.1907C43.8017 12.2572 48.2922 8.74888 53.2257 9.35464C57.929 9.93213 61.337 14.0403 61.12 18.697Z" fill="#219653"/>
<path d="M92.2613 65.1492C92.2613 80.5399 79.7766 93.0181 64.3741 93.0181C48.9715 93.0181 36.4869 80.5399 36.4869 65.1492C36.4869 49.7584 48.9715 37.2802 64.3741 37.2802C79.7766 37.2802 92.2613 49.7584 92.2613 65.1492Z" fill="#27AE60" stroke="white" stroke-width="3"/>
<path d="M80.3662 64.9245C80.3662 73.4016 73.2749 80.349 64.4331 80.349C55.5913 80.349 48.5 73.4016 48.5 64.9245C48.5 56.4473 55.5913 49.5 64.4331 49.5C73.2749 49.5 80.3662 56.4473 80.3662 64.9245Z" fill="#27AE60" stroke="white" stroke-width="3"/>
</svg>
